<svg width="16" height="16" viewBox="0 0 16 16" fill="none" xmlns="http://www.w3.org/2000/svg">
<path d="M0.170166 10.6908H13.4949V12.8223H0.170166V10.6908ZM14.6082 10.3045H13.8939V9.32677C13.8939 8.47677 13.2429 8.29852 12.6962 8.29852H10.7784C10.1844 8.29852 9.67467 8.00377 9.38092 7.48977C9.14742 7.08102 9.07942 6.57852 9.17767 6.12202C8.54167 6.04702 8.11542 5.76952 7.85342 5.52252C7.43017 5.12302 7.18717 4.56577 7.18717 3.99252C7.18717 2.91402 7.92167 1.82227 9.32542 1.82227V2.53652C8.19917 2.53652 7.90167 3.48877 7.90167 3.99252C7.90167 4.36952 8.06267 4.73802 8.34392 5.00302C8.66892 5.30952 9.12667 5.45452 9.66642 5.42302C9.73116 5.41815 9.79597 5.43152 9.8535 5.46162C9.91103 5.49171 9.95898 5.53731 9.99192 5.59327C10.0609 5.70577 10.0622 5.84702 9.99517 5.96077C9.79642 6.29827 9.79917 6.78127 10.0014 7.13527C10.1184 7.34002 10.3484 7.58427 10.7787 7.58427H12.6964C13.8757 7.58427 14.6084 8.25202 14.6084 9.32677L14.6082 10.3045Z" fill="black"/>
<path d="M15.7204 10.3045H15.0064V8.99152C15.0064 7.83152 14.2092 6.59852 12.7317 6.59852H11.5974C11.5316 6.59863 11.467 6.5805 11.4107 6.54613C11.3545 6.51177 11.309 6.46252 11.279 6.40383C11.2491 6.34514 11.236 6.27932 11.2412 6.21364C11.2464 6.14797 11.2697 6.08502 11.3084 6.03177C11.5669 5.67527 11.7214 5.23802 11.7214 4.86177C11.7214 3.91727 10.9719 3.23177 9.9397 3.23177V2.51752C11.3627 2.51752 12.4354 3.52527 12.4354 4.86177C12.4354 5.19502 12.3559 5.54827 12.2099 5.88427H12.7314C14.6024 5.88427 15.7202 7.46402 15.7202 8.99152L15.7204 10.3045ZM13.8939 10.6573H14.6082V12.814H13.8939V10.6573ZM15.0104 10.6573H15.7244V12.814H15.0104V10.6573Z" fill="black"/>
</svg>
